<svg width="665" height="312" viewBox="0 0 665 312" fill="none" xmlns="http://www.w3.org/2000/svg">
<rect x="121.8" y="59.1136" width="41.2154" height="41.2154" transform="rotate(30 121.8 59.1136)" fill="#FFB71B" stroke="#F7F7F7" stroke-width="2"/>
<rect x="85.3591" y="38.0745" width="41.2154" height="41.2154" transform="rotate(30 85.3591 38.0745)" fill="#F1F1F1" stroke="#F7F7F7" stroke-width="2"/>
<rect x="142.838" y="22.6731" width="41.2154" height="41.2154" transform="rotate(30 142.838 22.6731)" fill="#F1F1F1" stroke="#F7F7F7" stroke-width="2"/>
<rect x="106.398" y="1.63413" width="41.2154" height="41.2154" transform="rotate(30 106.398 1.63413)" fill="#F1F1F1" stroke="#F7F7F7" stroke-width="2"/>
<rect x="100.76" y="95.554" width="41.2154" height="41.2154" transform="rotate(30 100.76 95.554)" fill="#FFB71B" stroke="#F7F7F7" stroke-width="2"/>
<rect x="64.3195" y="74.5152" width="41.2154" height="41.2154" transform="rotate(30 64.3195 74.5152)" fill="#F1F1F1" stroke="#F7F7F7" stroke-width="2"/>
<rect x="79.7214" y="131.995" width="41.2154" height="41.2154" transform="rotate(30 79.7214 131.995)" fill="#F1F1F1" stroke="#F7F7F7" stroke-width="2"/>
<rect x="43.2809" y="110.956" width="41.2154" height="41.2154" transform="rotate(30 43.2809 110.956)" fill="#F1F1F1" stroke="#F7F7F7" stroke-width="2"/>
<rect x="22.2419" y="147.396" width="41.2154" height="41.2154" transform="rotate(30 22.2419 147.396)" fill="#F1F1F1" stroke="#F7F7F7" stroke-width="2"/>
<rect x="58.6823" y="168.435" width="41.2154" height="41.2154" transform="rotate(30 58.6823 168.435)" fill="#F1F1F1" stroke="#F7F7F7" stroke-width="2"/>
<rect x="158.24" y="80.1522" width="41.2154" height="41.2154" transform="rotate(30 158.24 80.1522)" fill="#F1F1F1" stroke="#F7F7F7" stroke-width="2"/>
<rect x="179.279" y="43.7118" width="41.2154" height="41.2154" transform="rotate(30 179.279 43.7118)" fill="#F1F1F1" stroke="#F7F7F7" stroke-width="2"/>
<rect x="137.201" y="116.593" width="41.2154" height="41.2154" transform="rotate(30 137.201 116.593)" fill="#FFB71B" stroke="#F7F7F7" stroke-width="2"/>
<rect x="116.162" y="153.033" width="41.2154" height="41.2154" transform="rotate(30 116.162 153.033)" fill="#F1F1F1" stroke="#F7F7F7" stroke-width="2"/>
<rect x="95.1232" y="189.474" width="41.2154" height="41.2154" transform="rotate(30 95.1232 189.474)" fill="#F1F1F1" stroke="#F7F7F7" stroke-width="2"/>
<rect x="194.68" y="101.191" width="41.2154" height="41.2154" transform="rotate(30 194.68 101.191)" fill="#FFB71B" stroke="#F7F7F7" stroke-width="2"/>
<rect x="231.121" y="122.23" width="41.2154" height="41.2154" transform="rotate(30 231.121 122.23)" fill="#F1F1F1" stroke="#F7F7F7" stroke-width="2"/>
<rect x="215.719" y="64.7508" width="41.2154" height="41.2154" transform="rotate(30 215.719 64.7508)" fill="#F1F1F1" stroke="#F7F7F7" stroke-width="2"/>
<rect x="252.16" y="85.7898" width="41.2154" height="41.2154" transform="rotate(30 252.16 85.7898)" fill="#F1F1F1" stroke="#F7F7F7" stroke-width="2"/>
<rect x="173.641" y="137.632" width="41.2154" height="41.2154" transform="rotate(30 173.641 137.632)" fill="#FFB71B" stroke="#F7F7F7" stroke-width="2"/>
<rect x="210.082" y="158.671" width="41.2154" height="41.2154" transform="rotate(30 210.082 158.671)" fill="#F1F1F1" stroke="#F7F7F7" stroke-width="2"/>
<rect x="152.602" y="174.072" width="41.2154" height="41.2154" transform="rotate(30 152.602 174.072)" fill="#FFB71B" stroke="#F7F7F7" stroke-width="2"/>
<rect x="189.043" y="195.111" width="41.2154" height="41.2154" transform="rotate(30 189.043 195.111)" fill="#F1F1F1" stroke="#F7F7F7" stroke-width="2"/>
<rect x="168.004" y="231.552" width="41.2154" height="41.2154" transform="rotate(30 168.004 231.552)" fill="#F1F1F1" stroke="#F7F7F7" stroke-width="2"/>
<rect x="131.564" y="210.513" width="41.2154" height="41.2154" transform="rotate(30 131.564 210.513)" fill="#F1F1F1" stroke="#F7F7F7" stroke-width="2"/>
<rect x="143.204" y="24.0392" width="39.2154" height="39.2154" transform="rotate(30 143.204 24.0392)" fill="#F1F1F1"/>
<rect x="497.311" y="81.5088" width="41.2154" height="41.2154" transform="rotate(30 497.311 81.5088)" fill="#FFB71B" stroke="#F7F7F7" stroke-width="2"/>
<rect x="460.871" y="60.4699" width="41.2154" height="41.2154" transform="rotate(30 460.871 60.4699)" fill="#F1F1F1" stroke="#F7F7F7" stroke-width="2"/>
<rect x="518.35" y="45.0684" width="41.2154" height="41.2154" transform="rotate(30 518.35 45.0684)" fill="#F1F1F1" stroke="#F7F7F7" stroke-width="2"/>
<rect x="481.91" y="24.0294" width="41.2154" height="41.2154" transform="rotate(30 481.91 24.0294)" fill="#F1F1F1" stroke="#F7F7F7" stroke-width="2"/>
<rect x="476.273" y="117.949" width="41.2154" height="41.2154" transform="rotate(30 476.273 117.949)" fill="#FFB71B" stroke="#F7F7F7" stroke-width="2"/>
<rect x="439.832" y="96.9104" width="41.2154" height="41.2154" transform="rotate(30 439.832 96.9104)" fill="#F1F1F1" stroke="#F7F7F7" stroke-width="2"/>
<rect x="455.233" y="154.39" width="41.2154" height="41.2154" transform="rotate(30 455.233 154.39)" fill="#F1F1F1" stroke="#F7F7F7" stroke-width="2"/>
<rect x="418.793" y="133.351" width="41.2154" height="41.2154" transform="rotate(30 418.793 133.351)" fill="#F1F1F1" stroke="#F7F7F7" stroke-width="2"/>
<rect x="397.754" y="169.792" width="41.2154" height="41.2154" transform="rotate(30 397.754 169.792)" fill="#F1F1F1" stroke="#F7F7F7" stroke-width="2"/>
<rect x="434.195" y="190.83" width="41.2154" height="41.2154" transform="rotate(30 434.195 190.83)" fill="#F1F1F1" stroke="#F7F7F7" stroke-width="2"/>
<rect x="533.752" y="102.548" width="41.2154" height="41.2154" transform="rotate(30 533.752 102.548)" fill="#F1F1F1" stroke="#F7F7F7" stroke-width="2"/>
<rect x="554.79" y="66.1073" width="41.2154" height="41.2154" transform="rotate(30 554.79 66.1073)" fill="#F1F1F1" stroke="#F7F7F7" stroke-width="2"/>
<rect x="512.713" y="138.988" width="41.2154" height="41.2154" transform="rotate(30 512.713 138.988)" fill="#FFB71B" stroke="#F7F7F7" stroke-width="2"/>
<rect x="491.674" y="175.429" width="41.2154" height="41.2154" transform="rotate(30 491.674 175.429)" fill="#F1F1F1" stroke="#F7F7F7" stroke-width="2"/>
<rect x="470.635" y="211.869" width="41.2154" height="41.2154" transform="rotate(30 470.635 211.869)" fill="#F1F1F1" stroke="#F7F7F7" stroke-width="2"/>
<rect x="570.192" y="123.587" width="41.2154" height="41.2154" transform="rotate(30 570.192 123.587)" fill="#FFB71B" stroke="#F7F7F7" stroke-width="2"/>
<rect x="606.633" y="144.626" width="41.2154" height="41.2154" transform="rotate(30 606.633 144.626)" fill="#F1F1F1" stroke="#F7F7F7" stroke-width="2"/>
<rect x="591.231" y="87.1462" width="41.2154" height="41.2154" transform="rotate(30 591.231 87.1462)" fill="#F1F1F1" stroke="#F7F7F7" stroke-width="2"/>
<rect x="627.672" y="108.185" width="41.2154" height="41.2154" transform="rotate(30 627.672 108.185)" fill="#F1F1F1" stroke="#F7F7F7" stroke-width="2"/>
<rect x="549.154" y="160.027" width="41.2154" height="41.2154" transform="rotate(30 549.154 160.027)" fill="#FFB71B" stroke="#F7F7F7" stroke-width="2"/>
<rect x="585.594" y="181.066" width="41.2154" height="41.2154" transform="rotate(30 585.594 181.066)" fill="#F1F1F1" stroke="#F7F7F7" stroke-width="2"/>
<rect x="528.114" y="196.468" width="41.2154" height="41.2154" transform="rotate(30 528.114 196.468)" fill="#FFB71B" stroke="#F7F7F7" stroke-width="2"/>
<rect x="564.555" y="217.507" width="41.2154" height="41.2154" transform="rotate(30 564.555 217.507)" fill="#F1F1F1" stroke="#F7F7F7" stroke-width="2"/>
<rect x="543.516" y="253.947" width="41.2154" height="41.2154" transform="rotate(30 543.516 253.947)" fill="#F1F1F1" stroke="#F7F7F7" stroke-width="2"/>
<rect x="507.075" y="232.908" width="41.2154" height="41.2154" transform="rotate(30 507.075 232.908)" fill="#F1F1F1" stroke="#F7F7F7" stroke-width="2"/>
<rect x="309.335" y="70.0906" width="41.2154" height="41.2154" transform="rotate(30 309.335 70.0906)" fill="#FFB71B" stroke="#F7F7F7" stroke-width="2"/>
<rect x="418.656" y="133.207" width="41.2154" height="41.2154" transform="rotate(30 418.656 133.207)" fill="#F1F1F1" stroke="#F7F7F7" stroke-width="2"/>
<rect x="330.374" y="33.6501" width="41.2154" height="41.2154" transform="rotate(30 330.374 33.6501)" fill="#F1F1F1" stroke="#F7F7F7" stroke-width="2"/>
<rect x="439.695" y="96.767" width="41.2154" height="41.2154" transform="rotate(30 439.695 96.767)" fill="#F1F1F1" stroke="#F7F7F7" stroke-width="2"/>
<rect x="288.296" y="106.531" width="41.2154" height="41.2154" transform="rotate(30 288.296 106.531)" fill="#FFB71B" stroke="#F7F7F7" stroke-width="2"/>
<rect x="397.617" y="169.648" width="41.2154" height="41.2154" transform="rotate(30 397.617 169.648)" fill="#F1F1F1" stroke="#F7F7F7" stroke-width="2"/>
<rect x="267.257" y="142.972" width="41.2154" height="41.2154" transform="rotate(30 267.257 142.972)" fill="#FFB71B" stroke="#F7F7F7" stroke-width="2"/>
<rect x="376.578" y="206.089" width="41.2154" height="41.2154" transform="rotate(30 376.578 206.089)" fill="#F1F1F1" stroke="#F7F7F7" stroke-width="2"/>
<rect x="355.54" y="242.529" width="41.2154" height="41.2154" transform="rotate(30 355.54 242.529)" fill="#F1F1F1" stroke="#F7F7F7" stroke-width="2"/>
<rect x="246.218" y="179.412" width="41.2154" height="41.2154" transform="rotate(30 246.218 179.412)" fill="#F1F1F1" stroke="#F7F7F7" stroke-width="2"/>
<rect x="345.775" y="91.1296" width="41.2154" height="41.2154" transform="rotate(30 345.775 91.1296)" fill="#FFB71B" stroke="#F7F7F7" stroke-width="2"/>
<rect x="366.814" y="54.6892" width="41.2154" height="41.2154" transform="rotate(30 366.814 54.6892)" fill="#F1F1F1" stroke="#F7F7F7" stroke-width="2"/>
<rect x="324.737" y="127.57" width="41.2154" height="41.2154" transform="rotate(30 324.737 127.57)" fill="#F1F1F1" stroke="#F7F7F7" stroke-width="2"/>
<rect x="303.698" y="164.011" width="41.2154" height="41.2154" transform="rotate(30 303.698 164.011)" fill="#FFB71B" stroke="#F7F7F7" stroke-width="2"/>
<rect x="282.659" y="200.451" width="41.2154" height="41.2154" transform="rotate(30 282.659 200.451)" fill="#F1F1F1" stroke="#F7F7F7" stroke-width="2"/>
<rect x="382.216" y="112.169" width="41.2154" height="41.2154" transform="rotate(30 382.216 112.169)" fill="#FFB71B" stroke="#F7F7F7" stroke-width="2"/>
<rect x="272.895" y="49.0517" width="41.2154" height="41.2154" transform="rotate(30 272.895 49.0517)" fill="#F1F1F1" stroke="#F7F7F7" stroke-width="2"/>
<rect x="403.255" y="75.7281" width="41.2154" height="41.2154" transform="rotate(30 403.255 75.7281)" fill="#F1F1F1" stroke="#F7F7F7" stroke-width="2"/>
<rect x="293.933" y="12.6112" width="41.2154" height="41.2154" transform="rotate(30 293.933 12.6112)" fill="#F1F1F1" stroke="#F7F7F7" stroke-width="2"/>
<rect x="361.177" y="148.609" width="41.2154" height="41.2154" transform="rotate(30 361.177 148.609)" fill="#FFB71B" stroke="#F7F7F7" stroke-width="2"/>
<rect x="251.855" y="85.4924" width="41.2154" height="41.2154" transform="rotate(30 251.855 85.4924)" fill="#F1F1F1" stroke="#F7F7F7" stroke-width="2"/>
<rect x="340.138" y="185.05" width="41.2154" height="41.2154" transform="rotate(30 340.138 185.05)" fill="#FFB71B" stroke="#F7F7F7" stroke-width="2"/>
<rect x="230.817" y="121.933" width="41.2154" height="41.2154" transform="rotate(30 230.817 121.933)" fill="#F1F1F1" stroke="#F7F7F7" stroke-width="2"/>
<rect x="209.778" y="158.373" width="41.2154" height="41.2154" transform="rotate(30 209.778 158.373)" fill="#F1F1F1" stroke="#F7F7F7" stroke-width="2"/>
<rect x="319.099" y="221.49" width="41.2154" height="41.2154" transform="rotate(30 319.099 221.49)" fill="#F1F1F1" stroke="#F7F7F7" stroke-width="2"/>
</svg>
