<svg width="109" height="27" viewBox="0 0 109 27" fill="none" xmlns="http://www.w3.org/2000/svg">
<g clip-path="url(#clip0_116_207)">
<path d="M22.7403 0.730103V26.6421H15.681V16.492H7.05929V26.6421H0V0.730103H7.05929V10.2932H15.681V0.730103H22.7403Z" fill="#6F7272"/>
<path d="M26.6748 5.84093V0H33.5494V5.84093H26.6748ZM26.6748 26.6421V7.44433H33.5494V26.6421H26.6748Z" fill="#6F7272"/>
<path d="M37.1003 26.6421V19.9279H42.6682V26.6421H37.1003Z" fill="#FFB71B"/>
<path d="M46.0771 0H52.9518V19.0117C52.9518 20.4719 53.5484 21.202 54.7273 21.202C55.0113 21.202 55.3238 21.1591 55.6647 21.0589C56.0056 20.9586 56.3181 20.8298 56.6022 20.658L57.4686 25.7688C56.6448 26.1554 55.7215 26.456 54.6989 26.685C53.6762 26.8998 52.6961 27.0143 51.7871 27.0143C49.9548 27.0143 48.5344 26.5419 47.5543 25.597C46.5601 24.6522 46.0771 23.2778 46.0771 21.474V0Z" fill="#00BBB4"/>
<path d="M59.0737 5.84093V0H65.9484V5.84093H59.0737ZM59.0737 26.6421V7.44433H65.9484V26.6421H59.0737Z" fill="#00BBB4"/>
<path d="M74.144 26.6421L67.738 7.44434H74.7973L78.2062 21.202L81.6294 7.44434H88.0353L81.6294 26.6421H74.144Z" fill="#00BBB4"/>
<path d="M98.5745 27C96.9126 27 95.4212 26.7423 94.1287 26.2126C92.8219 25.6829 91.7282 24.9814 90.8476 24.0795C89.967 23.1776 89.2994 22.1469 88.8449 20.973C88.3903 19.799 88.1631 18.5822 88.1631 17.2937C88.1631 15.9051 88.3903 14.588 88.8307 13.3568C89.271 12.1113 89.9386 11.0376 90.8192 10.1071C91.6998 9.17656 92.7793 8.44645 94.0719 7.90244C95.3644 7.35843 96.87 7.08643 98.5745 7.08643C100.265 7.08643 101.756 7.35843 103.063 7.90244C104.37 8.44645 105.463 9.17656 106.344 10.0928C107.225 11.009 107.892 12.0684 108.332 13.2709C108.773 14.4735 109 15.7333 109 17.0504C109 17.4083 108.986 17.7805 108.943 18.167C108.901 18.5392 108.858 18.8828 108.815 19.1691H95.4638C95.5349 20.1856 95.9042 20.93 96.5859 21.3738C97.2677 21.8176 97.9921 22.0467 98.7875 22.0467C99.5403 22.0467 100.236 21.8749 100.904 21.5313C101.571 21.1877 102.012 20.7153 102.225 20.114L108.048 21.789C107.281 23.3208 106.088 24.5806 104.483 25.5541C102.892 26.5133 100.918 27 98.5745 27ZM101.614 15.0032C101.486 14.0726 101.16 13.3425 100.606 12.8128C100.052 12.2831 99.3415 12.0111 98.475 12.0111C97.6086 12.0111 96.8984 12.2831 96.3445 12.8128C95.7905 13.3425 95.4496 14.0726 95.336 15.0032H101.614Z" fill="#00BBB4"/>
<path d="M65.9767 0.0286255H59.1021V5.86956H65.9767V0.0286255Z" fill="#FFB71B"/>
</g>
<defs>
<clipPath id="clip0_116_207">
<rect width="109" height="27" fill="white"/>
</clipPath>
</defs>
</svg>
